<svg width="102" height="28" viewBox="0 0 102 28" fill="currentColor" xmlns="http://www.w3.org/2000/svg">
<path fill-rule="evenodd" clip-rule="evenodd" d="M22.2212 3.04235L19.5674 5.00774C17.9696 3.90644 16.1015 3.2754 14.1733 3.17997L14.1731 3.18311C13.9995 3.1745 13.8248 3.16804 13.649 3.16804C12.2705 3.16717 10.9055 3.44007 9.63245 3.97105C8.52243 4.43402 7.50136 5.08523 6.61331 5.895L6.61495 5.89682C5.52588 6.88369 4.65531 8.08943 4.05964 9.43589C3.46397 10.7824 3.1565 12.2396 3.15716 13.7132H3.15339V13.7136C3.15253 15.0983 3.42404 16.4697 3.95234 17.7485C4.48063 19.0275 5.25527 20.1889 6.23176 21.1661L6.22972 21.1681C7.13996 22.0852 8.21202 22.8268 9.39276 23.354C10.573 23.881 11.8386 24.1835 13.1254 24.2479L13.1255 24.2466L13.1533 24.2487L13.1771 24.2503C13.304 24.2561 13.4311 24.2595 13.5583 24.2605L13.6506 24.2606H13.6507C15.0289 24.2613 16.3936 23.9884 17.6664 23.4575C18.7778 22.994 19.8002 22.3419 20.6893 21.5309L20.6889 21.5305C20.7302 21.4931 20.7711 21.4554 20.8118 21.4174C20.8985 21.3357 20.9839 21.2525 21.068 21.1677L21.0689 21.1686C21.9817 20.2543 22.7197 19.1776 23.2444 17.9915C23.8401 16.6449 24.1476 15.1876 24.1468 13.7141V13.4319L27.0847 11.2565C27.2291 12.0677 27.3008 12.8901 27.2991 13.7141C27.3014 15.6307 26.9029 17.5265 26.1292 19.2784C25.3556 21.0303 24.224 22.5993 22.808 23.8835L22.8063 23.8816C21.6495 24.9365 20.3192 25.7843 18.873 26.3865C17.2175 27.0758 15.4427 27.4297 13.6507 27.4279H13.6502V27.4282C11.7426 27.4304 9.85573 27.0299 8.11207 26.2523C6.36841 25.4748 4.80688 24.3376 3.52873 22.9148L3.52875 22.9148C2.47973 21.7525 1.6364 20.4162 1.03722 18.9636C0.35114 17.3004 -0.00133604 15.5173 3.80545e-06 13.7169C3.80545e-06 13.4865 0.00643207 13.2581 0.0171505 13.032L0.0198981 13.0321C0.101563 11.3486 0.492371 9.69278 1.17461 8.14863C1.85557 6.60741 2.81351 5.20785 3.99841 4.01922L3.99694 4.01774C5.26332 2.74273 6.7679 1.73162 8.42428 1.04246C10.0799 0.353619 11.8545 -4.98212e-06 13.6464 0.00185861V2.1017e-05C16.7676 -0.00547943 19.7956 1.06883 22.2212 3.04235ZM26.0882 8.05561C25.6499 7.08615 25.101 6.17109 24.4525 5.32882L13.6548 13.3271L8.45838 10.0544V13.9916L13.6548 17.2644L26.0882 8.05561Z" fill="currentColor"/>
<path d="M79.9964 8.14399L83.7508 5.36328H71.1851V22.0628H83.7508V19.2821H74.7713V15.0064H82.4311V12.2268H74.7713V8.14399H79.9964Z" fill="currentColor"/>
<path d="M61.7023 11.8727H57.3384V8.14399H64.305L68.0596 5.36328H53.752V22.0671H61.2349C65.4339 22.0671 67.8427 20.1559 67.8427 16.8217C67.848 13.6292 65.6661 11.8727 61.7023 11.8727ZM61.0777 19.2821H57.3384V14.6577H61.0777C63.355 14.6577 64.4146 15.4314 64.4146 16.972C64.4146 18.5411 63.2922 19.2821 61.0777 19.2821Z" fill="currentColor"/>
<path d="M93.9304 5.36328H87.0884V22.066H90.6748V17.3371H93.9282C98.2944 17.3371 101.006 15.0304 101.006 11.3442C101.006 7.65802 98.2997 5.36328 93.9304 5.36328ZM93.8534 14.5476H90.6748V8.14291H93.8534C96.1514 8.14291 97.4159 9.28043 97.4159 11.3463C97.4159 13.4122 96.1514 14.5476 93.8534 14.5476Z" fill="currentColor"/>
<path d="M47.5942 18.4447C46.644 18.9623 45.579 19.2303 44.4981 19.2237C41.2652 19.2237 38.9184 16.9061 38.9184 13.7114C38.9184 10.5165 41.2652 8.19787 44.4981 8.19787C45.668 8.18 46.8128 8.53935 47.7644 9.22323L50.3368 7.31854L50.1666 7.16926C48.6646 5.8432 46.6583 5.14258 44.3635 5.14258C41.8692 5.14258 39.6168 5.98594 38.0042 7.51686C36.3915 9.04777 35.4893 11.2216 35.4893 13.6187C35.4893 16.0159 36.3785 18.2235 37.9955 19.811C39.6125 21.3986 41.8661 22.2834 44.3365 22.2834C46.9219 22.2834 49.1798 21.3779 50.7099 19.7304L48.3892 18.011L47.5942 18.4447Z" fill="currentColor"/>
</svg>
