<svg width="14" height="14" viewBox="0 0 14 14" fill="currentColor" xmlns="http://www.w3.org/2000/svg">
<path d="M1.3406 7.83423H10.6489L6.58226 11.9009C6.25726 12.2259 6.25726 12.7592 6.58226 13.0842C6.90726 13.4092 7.43226 13.4092 7.75726 13.0842L13.2489 7.59257C13.5739 7.26757 13.5739 6.74257 13.2489 6.41757L7.7656 0.917566C7.6099 0.761522 7.39853 0.673828 7.1781 0.673828C6.95766 0.673828 6.74629 0.761522 6.5906 0.917566C6.2656 1.24257 6.2656 1.76757 6.5906 2.09257L10.6489 6.16757H1.3406C0.882263 6.16757 0.507263 6.54257 0.507263 7.0009C0.507263 7.45923 0.882263 7.83423 1.3406 7.83423Z" fill="currentColor"/>
</svg>
