<svg width="24" height="17" viewBox="0 0 24 17" fill="none" xmlns="http://www.w3.org/2000/svg">
<path fill-rule="evenodd" clip-rule="evenodd" d="M3.3718 4.55893C5.16635 2.76418 7.98392 0.949219 12 0.949219C16.0161 0.949219 18.8337 2.76418 20.6282 4.55893C21.5232 5.45399 22.1685 6.34767 22.5911 7.01893C22.8028 7.35518 22.9597 7.63744 23.0651 7.83871C23.1179 7.93939 23.1578 8.01998 23.1853 8.07711C23.1991 8.10569 23.2097 8.12841 23.2173 8.14487L23.2265 8.16482L23.2293 8.17117L23.2303 8.17343L23.2307 8.17433C23.2309 8.17471 23.2311 8.17507 22.5 8.49995C23.231 8.82489 23.2309 8.82525 23.2307 8.82563L23.2303 8.82653L23.2293 8.82878L23.2264 8.83514L23.2173 8.85508C23.2097 8.87154 23.199 8.89426 23.1853 8.92283C23.1578 8.97995 23.1178 9.06053 23.0651 9.16119C22.9597 9.36242 22.8027 9.64462 22.591 9.98081C22.1684 10.6519 21.5231 11.5454 20.6282 12.4403C18.8336 14.2347 16.016 16.0492 12 16.0492C7.98398 16.0492 5.16643 14.2347 3.37186 12.4403C2.47688 11.5454 1.83159 10.6519 1.40898 9.98081C1.19729 9.64462 1.04033 9.36242 0.934918 9.16119C0.882182 9.06053 0.842255 8.97995 0.814748 8.92283C0.800992 8.89426 0.790333 8.87154 0.782722 8.85508L0.773584 8.83514L0.770716 8.82878L0.769705 8.82653L0.769306 8.82563C0.769135 8.82525 0.768976 8.82489 1.50001 8.49995C0.76895 8.17507 0.769109 8.17471 0.769279 8.17433L0.769679 8.17343L0.77069 8.17117L0.773557 8.16482L0.782694 8.14487C0.790304 8.12841 0.800963 8.10569 0.814719 8.07711C0.842225 8.01998 0.88215 7.93939 0.934885 7.83871C1.0403 7.63744 1.19725 7.35518 1.40894 7.01893C1.83154 6.34767 2.47683 5.45399 3.3718 4.55893ZM1.50001 8.49995L0.76895 8.17507C0.677024 8.38192 0.677033 8.61804 0.768976 8.82489L1.50001 8.49995ZM2.23044 8.82627C2.23043 8.82628 2.23043 8.82628 2.23044 8.82625L2.23044 8.82627ZM2.39532 8.49991C2.48237 8.33803 2.60437 8.12326 2.76296 7.87137C3.13723 7.27686 3.7107 6.48286 4.50323 5.69024C6.08368 4.10962 8.51611 2.54922 12 2.54922C15.4839 2.54922 17.9163 4.10962 19.4968 5.69024C20.2893 6.48286 20.8628 7.27686 21.2371 7.87137C21.3957 8.12326 21.5177 8.33803 21.6047 8.49991C21.5177 8.66174 21.3957 8.87643 21.2371 9.12824C20.8628 9.7226 20.2894 10.5164 19.4969 11.3089C17.9164 12.8891 15.484 14.4492 12 14.4492C8.51605 14.4492 6.0836 12.8891 4.50317 11.3089C3.71064 10.5164 3.13718 9.7226 2.76292 9.12824C2.60435 8.87643 2.48237 8.66174 2.39532 8.49991ZM22.5 8.49995L23.231 8.82489C23.323 8.61804 23.323 8.38192 23.2311 8.17507L22.5 8.49995ZM12 5.55013C10.3708 5.55013 9.05001 6.87088 9.05001 8.5001C9.05001 10.1293 10.3708 11.4501 12 11.4501C13.6293 11.4501 14.95 10.1293 14.95 8.5001C14.95 6.87088 13.6293 5.55013 12 5.55013ZM7.45001 8.5001C7.45001 5.98721 9.48712 3.95013 12 3.95013C14.5129 3.95013 16.55 5.98721 16.55 8.5001C16.55 11.013 14.5129 13.0501 12 13.0501C9.48712 13.0501 7.45001 11.013 7.45001 8.5001Z" fill="white"/>
</svg>
