<svg width="20" height="11" viewBox="0 0 20 11" fill="none" xmlns="http://www.w3.org/2000/svg">
<path fill-rule="evenodd" clip-rule="evenodd" d="M0.497116 0.708983C0.8408 0.431326 1.3445 0.484851 1.62215 0.828534C2.13637 1.46503 2.79329 2.15372 3.60649 2.78252C3.62043 2.79255 3.63396 2.80297 3.64708 2.81375C5.18329 3.99029 7.27096 4.94924 9.99991 4.94924C10.812 4.94924 11.5672 4.86432 12.2681 4.71403C12.2793 4.71136 12.2906 4.70892 12.302 4.70671C13.9378 4.3501 15.276 3.63723 16.3467 2.81838C16.3615 2.8061 16.3769 2.79429 16.3927 2.78297C17.2062 2.15406 17.8633 1.4652 18.3776 0.828555C18.6553 0.484872 19.159 0.431348 19.5027 0.709006C19.8464 0.986663 19.8999 1.49036 19.6222 1.83404C19.1587 2.40782 18.5841 3.02775 17.8912 3.62362L19.6891 6.73778C19.91 7.12042 19.7789 7.60969 19.3963 7.8306C19.0137 8.05152 18.5244 7.92042 18.3035 7.53778L16.605 4.59598C15.6824 5.20444 14.608 5.73396 13.3719 6.08759L13.9093 9.13534C13.986 9.57046 13.6955 9.98539 13.2604 10.0621C12.8253 10.1388 12.4104 9.8483 12.3336 9.41318L11.8062 6.42192C11.2334 6.50442 10.6316 6.54924 9.99991 6.54924C9.36522 6.54924 8.76062 6.50399 8.18537 6.42072L7.65785 9.41248C7.58112 9.8476 7.1662 10.1381 6.73108 10.0614C6.29597 9.98469 6.00543 9.56976 6.08215 9.13465L6.61984 6.08528C5.38549 5.73118 4.31254 5.20169 3.39104 4.59352L1.68241 7.55298C1.4615 7.93562 0.972225 8.06672 0.58959 7.84581C0.206955 7.6249 0.0758524 7.13563 0.296765 6.75299L2.1052 3.62066C1.41384 3.02569 0.840351 2.40686 0.377565 1.83402C0.0999078 1.49034 0.153433 0.98664 0.497116 0.708983Z" fill="white"/>
</svg>
