<svg width="21" height="20" viewBox="0 0 21 20" fill="none" xmlns="http://www.w3.org/2000/svg">
<path d="M7.37494 8.125V5.625C7.37494 4.7962 7.70418 4.00134 8.29023 3.41529C8.87628 2.82924 9.67114 2.5 10.4999 2.5C11.3287 2.5 12.1236 2.82924 12.7096 3.41529C13.2957 4.00134 13.6249 4.7962 13.6249 5.625V8.125M16.8155 5.625H4.18435C4.03054 5.625 3.88214 5.68172 3.76753 5.7843C3.65292 5.88687 3.58016 6.02811 3.56318 6.18098L2.45206 16.181C2.44236 16.2683 2.45119 16.3568 2.47798 16.4405C2.50477 16.5242 2.54892 16.6013 2.60754 16.6668C2.66616 16.7323 2.73794 16.7847 2.81818 16.8206C2.89843 16.8565 2.98534 16.875 3.07324 16.875H17.9267C18.0146 16.875 18.1015 16.8565 18.1817 16.8206C18.262 16.7847 18.3337 16.7323 18.3924 16.6668C18.451 16.6013 18.4951 16.5242 18.5219 16.4405C18.5487 16.3568 18.5575 16.2683 18.5478 16.181L17.4367 6.18098C17.4197 6.02811 17.347 5.88687 17.2324 5.7843C17.1178 5.68172 16.9694 5.625 16.8155 5.625Z" stroke="currentColor" stroke-width="1.4" stroke-linecap="round" stroke-linejoin="round"/>
</svg>
