<svg width="22" height="20" viewBox="0 0 22 20" fill="none" xmlns="http://www.w3.org/2000/svg">
<path d="M11.0012 18.25C11.0012 18.25 1.62616 13 1.62616 6.62501C1.62635 5.49826 2.01677 4.40635 2.73105 3.53493C3.44532 2.66351 4.43936 2.06636 5.54415 1.84501C6.64894 1.62367 7.7963 1.79179 8.79115 2.32079C9.786 2.84979 10.5669 3.70701 11.0012 4.74673L11.0011 4.74673C11.4354 3.70702 12.2163 2.84979 13.2112 2.32079C14.206 1.79179 15.3534 1.62367 16.4582 1.84501C17.563 2.06636 18.557 2.66351 19.2713 3.53493C19.9855 4.40635 20.376 5.49826 20.3762 6.62501C20.3762 13 11.0012 18.25 11.0012 18.25Z" stroke="currentColor" stroke-width="1.6" stroke-linecap="round" stroke-linejoin="round"/>
</svg>
