<svg width="21" height="20" viewBox="0 0 21 20" fill="none" xmlns="http://www.w3.org/2000/svg">
<path d="M12.3745 16.2493V12.4992C12.3745 12.3334 12.3087 12.1744 12.1915 12.0572C12.0743 11.94 11.9153 11.8742 11.7495 11.8742H9.24954C9.08378 11.8742 8.92481 11.94 8.8076 12.0572C8.69039 12.1744 8.62454 12.3334 8.62454 12.4992V16.2493C8.62454 16.415 8.5587 16.574 8.44151 16.6912C8.32432 16.8084 8.16537 16.8742 7.99962 16.8743L4.25008 16.8747C4.168 16.8748 4.08671 16.8586 4.01088 16.8272C3.93504 16.7958 3.86613 16.7498 3.80809 16.6917C3.75004 16.6337 3.704 16.5648 3.67258 16.4889C3.64117 16.4131 3.625 16.3318 3.625 16.2497V9.02628C3.625 8.9392 3.64319 8.85309 3.67842 8.77346C3.71364 8.69382 3.76511 8.62243 3.82954 8.56385L10.0791 2.88145C10.1942 2.77684 10.3441 2.71888 10.4995 2.71887C10.655 2.71887 10.8049 2.77682 10.92 2.88142L17.1704 8.56385C17.2349 8.62243 17.2863 8.69382 17.3216 8.77346C17.3568 8.8531 17.375 8.93922 17.375 9.0263V16.2498C17.375 16.3318 17.3588 16.4131 17.3274 16.4889C17.296 16.5648 17.25 16.6337 17.1919 16.6917C17.1339 16.7498 17.065 16.7958 16.9891 16.8272C16.9133 16.8586 16.832 16.8748 16.7499 16.8748L12.9995 16.8743C12.8337 16.8742 12.6748 16.8084 12.5576 16.6912C12.4404 16.574 12.3745 16.415 12.3745 16.2493V16.2493Z" stroke="currentColor" stroke-width="1.4" stroke-linecap="round" stroke-linejoin="round"/>
</svg>
