<svg width="21" height="21" viewBox="0 0 21 21" fill="none" xmlns="http://www.w3.org/2000/svg">
<path d="M10.0062 20.0044C5.95972 20.0068 2.31066 17.5703 0.761827 13.832C-0.787002 10.0937 0.0697043 5.79046 2.93216 2.93037C5.45946 0.403078 9.14307 -0.583944 12.5954 0.341111C16.0478 1.26617 18.7444 3.96276 19.6694 7.41511C20.5945 10.8675 19.6075 14.5511 17.0802 17.0784C15.2076 18.9594 12.6603 20.013 10.0062 20.0044ZM2.00616 10.1764C2.05348 14.5776 5.64727 18.1139 10.0487 18.0904C14.4501 18.0666 18.0057 14.4919 18.0057 10.0904C18.0057 5.68888 14.4501 2.11415 10.0487 2.09037C5.64727 2.06683 2.05348 5.60313 2.00616 10.0044V10.1764ZM7.41516 14.0044L6.00616 12.5944L8.59616 10.0044L6.00616 7.41437L7.41616 6.00437L10.0062 8.59437L12.5962 6.00437L14.0062 7.41437L11.4162 10.0044L14.0062 12.5944L12.5972 14.0044L10.0062 11.4144L7.41616 14.0044H7.41516Z" fill="#CFF2CA"/>
</svg>
