<svg width="20" height="20" viewBox="0 0 20 20" fill="none" xmlns="http://www.w3.org/2000/svg">
<path d="M6.86925 2.11261L6.86926 2.11262L18.1168 8.98639C18.1168 8.98639 18.1168 8.9864 18.1168 8.9864C18.2904 9.09255 18.4338 9.24149 18.5333 9.41897C18.6328 9.59644 18.6851 9.7965 18.6851 9.99997C18.6851 10.2034 18.6328 10.4035 18.5333 10.581C18.4338 10.7584 18.2904 10.9074 18.1168 11.0135L6.86929 17.8873C6.86928 17.8873 6.86927 17.8873 6.86926 17.8873C6.68926 17.9972 6.48325 18.0571 6.2724 18.061C6.06153 18.0649 5.85343 18.0126 5.66948 17.9095C5.48552 17.8064 5.33233 17.6561 5.22566 17.4742C5.11899 17.2923 5.06267 17.0852 5.0625 16.8743L5.0625 3.12557C5.0625 2.91461 5.1187 2.70746 5.22533 2.52543C5.33196 2.3434 5.48517 2.19307 5.66918 2.0899C5.85319 1.98673 6.06137 1.93445 6.2723 1.93845C6.48322 1.94244 6.68927 2.00255 6.86925 2.11261Z" fill="currentColor" stroke="currentColor" stroke-width="0.125"/>
</svg>
