<svg width="20" height="20" viewBox="0 0 20 20" fill="none" xmlns="http://www.w3.org/2000/svg">
<path d="M3.75006 15.625C3.75006 15.625 6.87506 15 7.50006 13.125C7.50006 13.125 2.50006 11.25 3.75006 4.375C3.75006 4.375 6.25006 7.5 10.0001 8.125V6.87523C10.0001 6.15723 10.2474 5.46114 10.7003 4.904C11.1532 4.34686 11.7841 3.96264 12.487 3.81594C13.1898 3.66924 13.9218 3.769 14.5597 4.09845C15.1977 4.4279 15.7027 4.96695 15.99 5.62497L18.7501 5.625L16.2501 8.125C16.2501 12.5 13.1251 16.875 7.50006 16.875C5.00006 16.875 3.75006 15.625 3.75006 15.625Z" stroke="currentColor" stroke-width="1.6" stroke-linecap="round" stroke-linejoin="round"/>
</svg>
