<svg width="20" height="20" viewBox="0 0 20 20" fill="none" xmlns="http://www.w3.org/2000/svg">
<path d="M12.5 9.99997L8.75 7.49997V12.5L12.5 9.99997Z" stroke="currentColor" stroke-width="1.6" stroke-linecap="round" stroke-linejoin="round"/>
<path d="M1.875 9.99967C1.875 12.3243 2.11517 13.6883 2.29774 14.3893C2.34654 14.5807 2.44026 14.7578 2.57114 14.9058C2.70201 15.0538 2.86627 15.1685 3.0503 15.2404C5.66569 16.2454 10 16.2178 10 16.2178C10 16.2178 14.3343 16.2454 16.9497 15.2404C17.1337 15.1685 17.298 15.0538 17.4288 14.9058C17.5597 14.7578 17.6534 14.5807 17.7022 14.3893C17.8848 13.6883 18.125 12.3243 18.125 9.99967C18.125 7.67502 17.8848 6.31109 17.7023 5.61009C17.6535 5.41864 17.5597 5.24157 17.4289 5.09356C17.298 4.94555 17.1337 4.83085 16.9497 4.75897C14.3343 3.75391 10 3.78151 10 3.78151C10 3.78151 5.66574 3.75391 3.05033 4.75896C2.86629 4.83084 2.70203 4.94553 2.57116 5.09355C2.44029 5.24156 2.34656 5.41863 2.29776 5.61008C2.11518 6.31108 1.875 7.67502 1.875 9.99967Z" stroke="currentColor" stroke-width="1.6" stroke-linecap="round" stroke-linejoin="round"/>
</svg>
