<svg width="20" height="20" viewBox="0 0 20 20" fill="none" xmlns="http://www.w3.org/2000/svg">
<path d="M6.87514 10.5374L13.8999 16.7192C13.9812 16.7907 14.0797 16.8399 14.1857 16.8619C14.2917 16.8839 14.4016 16.878 14.5046 16.8448C14.6077 16.8116 14.7003 16.7522 14.7735 16.6724C14.8467 16.5926 14.8978 16.4951 14.922 16.3896L17.8606 3.56673C17.886 3.45587 17.8807 3.34017 17.8452 3.23211C17.8097 3.12405 17.7454 3.02772 17.6592 2.9535C17.573 2.87929 17.4682 2.83 17.3561 2.81095C17.2439 2.7919 17.1287 2.80382 17.0229 2.8454L2.60435 8.50982C2.47869 8.55918 2.3724 8.64791 2.30137 8.76273C2.23034 8.87755 2.1984 9.01227 2.21033 9.14676C2.22226 9.28124 2.27741 9.40824 2.36754 9.50876C2.45767 9.60929 2.57792 9.67792 2.71031 9.7044L6.87514 10.5374ZM6.87514 10.5374L17.5088 2.85699M6.87514 10.5374L6.87501 15.6237C6.87502 15.7473 6.91167 15.8681 6.98035 15.9709C7.04902 16.0737 7.14664 16.1538 7.26084 16.2011C7.37504 16.2484 7.50071 16.2608 7.62195 16.2367C7.74318 16.2126 7.85455 16.153 7.94196 16.0656L10.3834 13.6242" stroke="currentColor" stroke-width="1.6" stroke-linecap="round" stroke-linejoin="round"/>
</svg>
