<svg width="20" height="20" viewBox="0 0 20 20" fill="none" xmlns="http://www.w3.org/2000/svg">
<path d="M14.0996 6H14.1006M13.125 10C13.125 11.7259 11.7259 13.125 10 13.125C8.27411 13.125 6.875 11.7259 6.875 10C6.875 8.27411 8.27411 6.875 10 6.875C11.7259 6.875 13.125 8.27411 13.125 10ZM6.5625 2.8125H13.4375C15.5086 2.8125 17.1875 4.49143 17.1875 6.5625V13.4375C17.1875 15.5086 15.5086 17.1875 13.4375 17.1875H6.5625C4.49143 17.1875 2.8125 15.5086 2.8125 13.4375V6.5625C2.8125 4.49143 4.49143 2.8125 6.5625 2.8125Z" stroke="currentColor" stroke-width="1.6" stroke-linecap="round" stroke-linejoin="round"/>
</svg>
