<svg width="32" height="32" viewBox="0 0 32 32" fill="none" xmlns="http://www.w3.org/2000/svg">
<mask id="path-1-inside-1" fill="white">
<path d="M16 0L16.003 4.27194C16.0076 10.7456 21.2544 15.9924 27.7281 15.997L32 16L27.7281 16.003C21.2544 16.0076 16.0076 21.2544 16.003 27.7281L16 32L15.997 27.7281C15.9924 21.2544 10.7456 16.0076 4.27195 16.003L0 16L4.27194 15.997C10.7456 15.9924 15.9924 10.7456 15.997 4.27195L16 0Z"/>
</mask>
<path d="M16 0L18.1333 -0.00150965L13.8667 -0.00150953L16 0ZM32 16L32.0015 18.1333V13.8667L32 16ZM16 32L13.8667 32.0015H18.1333L16 32ZM0 16L-0.00150953 13.8667L-0.00150965 18.1333L0 16ZM4.27195 16.003L4.27044 18.1364L4.27195 16.003ZM16.003 4.27194L13.8697 4.27345L16.003 4.27194ZM27.7281 15.997L27.7265 18.1303L27.7281 15.997ZM13.8667 0.00150965L13.8697 4.27345L18.1364 4.27043L18.1333 -0.00150965L13.8667 0.00150965ZM27.7265 18.1303L31.9985 18.1333L32.0015 13.8667L27.7296 13.8636L27.7265 18.1303ZM31.9985 13.8667L27.7265 13.8697L27.7296 18.1364L32.0015 18.1333L31.9985 13.8667ZM13.8697 27.7265L13.8667 31.9985L18.1333 32.0015L18.1364 27.7296L13.8697 27.7265ZM18.1333 31.9985L18.1303 27.7265L13.8636 27.7296L13.8667 32.0015L18.1333 31.9985ZM4.27346 13.8697L0.00150965 13.8667L-0.00150965 18.1333L4.27044 18.1364L4.27346 13.8697ZM0.00150953 18.1333L4.27345 18.1303L4.27043 13.8636L-0.00150953 13.8667L0.00150953 18.1333ZM18.1303 4.27346L18.1333 0.00150953L13.8667 -0.00150953L13.8636 4.27044L18.1303 4.27346ZM4.27345 18.1303C11.9241 18.1249 18.1249 11.9241 18.1303 4.27346L13.8636 4.27044C13.8599 9.56706 9.56706 13.8599 4.27043 13.8636L4.27345 18.1303ZM18.1303 27.7265C18.1249 20.0759 11.9241 13.8751 4.27346 13.8697L4.27044 18.1364C9.56707 18.1401 13.8599 22.4329 13.8636 27.7296L18.1303 27.7265ZM27.7265 13.8697C20.0759 13.8751 13.8751 20.0759 13.8697 27.7265L18.1364 27.7296C18.1401 22.4329 22.4329 18.1401 27.7296 18.1364L27.7265 13.8697ZM13.8697 4.27345C13.8751 11.9241 20.0759 18.1249 27.7265 18.1303L27.7296 13.8636C22.4329 13.8599 18.1401 9.56706 18.1364 4.27043L13.8697 4.27345Z" fill="currentColor" mask="url(#path-1-inside-1)"/>
</svg>
