<svg width="21" height="20" viewBox="0 0 21 20" fill="none" xmlns="http://www.w3.org/2000/svg">
<path d="M10.5 12.5C12.2259 12.5 13.625 11.1009 13.625 9.375C13.625 7.64911 12.2259 6.25 10.5 6.25C8.77411 6.25 7.375 7.64911 7.375 9.375C7.375 11.1009 8.77411 12.5 10.5 12.5ZM10.5 12.5C9.46154 12.5 8.44327 12.7874 7.55803 13.3303C6.67278 13.8732 5.95504 14.6505 5.48425 15.5761M10.5 12.5C11.5385 12.5 12.5566 12.7874 13.4419 13.3303C14.3271 13.8732 15.0448 14.6505 15.5156 15.5761M18 10C18 14.1421 14.6421 17.5 10.5 17.5C6.35786 17.5 3 14.1421 3 10C3 5.85786 6.35786 2.5 10.5 2.5C14.6421 2.5 18 5.85786 18 10Z" stroke="currentColor" stroke-width="1.4" stroke-linecap="round" stroke-linejoin="round"/>
</svg>
